<svg width="48" height="48" viewBox="0 0 48 48" fill="none" xmlns="http://www.w3.org/2000/svg">
    <path
        d="M0 12.6316C0 5.65535 5.65535 0 12.6316 0H35.3684C42.3446 0 48 5.65535 48 12.6316V35.3684C48 42.3446 42.3446 48 35.3684 48H12.6316C5.65535 48 0 42.3446 0 35.3684V12.6316Z"
        fill="#465FFF" />
    <path
        d="M0 12.6316C0 5.65535 5.65535 0 12.6316 0H35.3684C42.3446 0 48 5.65535 48 12.6316V35.3684C48 42.3446 42.3446 48 35.3684 48H12.6316C5.65535 48 0 42.3446 0 35.3684V12.6316Z"
        fill="#465FFF" />
    <g filter="url(#filter0_d_0_1)">
        <path
            d="M12.6357 12.6323C12.6357 11.237 13.7668 10.106 15.162 10.106C16.5573 10.106 17.6884 11.237 17.6884 12.6323V35.3691C17.6884 36.7644 16.5573 37.8954 15.162 37.8954C13.7668 37.8954 12.6357 36.7644 12.6357 35.3691V12.6323Z"
            fill="white" />
    </g>
    <g filter="url(#filter1_d_0_1)">
        <path
            d="M22.1133 22.7353C22.1133 21.3401 23.2443 20.209 24.6396 20.209C26.0348 20.209 27.1659 21.3401 27.1659 22.7353V35.3669C27.1659 36.7621 26.0348 37.8932 24.6396 37.8932C23.2443 37.8932 22.1133 36.7621 22.1133 35.3669V22.7353Z"
            fill="white" fill-opacity="0.9" />
    </g>
    <path
        d="M0 12.6316C0 5.65535 5.65535 0 12.6316 0H35.3684C42.3446 0 48 5.65535 48 12.6316V35.3684C48 42.3446 42.3446 48 35.3684 48H12.6316C5.65535 48 0 42.3446 0 35.3684V12.6316Z"
        fill="#465FFF" />
    <path
        d="M0 12.6316C0 5.65535 5.65535 0 12.6316 0H35.3684C42.3446 0 48 5.65535 48 12.6316V35.3684C48 42.3446 42.3446 48 35.3684 48H12.6316C5.65535 48 0 42.3446 0 35.3684V12.6316Z"
        fill="#465FFF" />
    <g filter="url(#filter2_d_0_1)">
        <path
            d="M12.6357 12.6323C12.6357 11.237 13.7668 10.106 15.162 10.106C16.5573 10.106 17.6884 11.237 17.6884 12.6323V35.3691C17.6884 36.7644 16.5573 37.8954 15.162 37.8954C13.7668 37.8954 12.6357 36.7644 12.6357 35.3691V12.6323Z"
            fill="white" />
    </g>
    <g filter="url(#filter3_d_0_1)">
        <path
            d="M22.1133 22.7353C22.1133 21.3401 23.2443 20.209 24.6396 20.209C26.0348 20.209 27.1659 21.3401 27.1659 22.7353V35.3669C27.1659 36.7621 26.0348 37.8932 24.6396 37.8932C23.2443 37.8932 22.1133 36.7621 22.1133 35.3669V22.7353Z"
            fill="white" fill-opacity="0.9" />
    </g>
    <g filter="url(#filter4_d_0_1)">
        <path
            d="M31.582 16.4189C31.582 15.0236 32.7131 13.8926 34.1083 13.8926C35.5036 13.8926 36.6346 15.0236 36.6346 16.4189V35.3663C36.6346 36.7615 35.5036 37.8926 34.1083 37.8926C32.7131 37.8926 31.582 36.7615 31.582 35.3663V16.4189Z"
            fill="white" fill-opacity="0.7" />
    </g>
    <defs>
        <filter id="filter0_d_0_1" x="11.6357" y="9.60596" width="7.05267" height="29.7894" filterUnits="userSpaceOnUse"
            color-interpolation-filters="sRGB">
            <feFlood flood-opacity="0" result="BackgroundImageFix" />
            <feColorMatrix in="SourceAlpha" type="matrix" values="0 0 0 0 0 0 0 0 0 0 0 0 0 0 0 0 0 0 127 0"
                result="hardAlpha" />
            <feOffset dy="0.5" />
            <feGaussianBlur stdDeviation="0.5" />
            <feComposite in2="hardAlpha" operator="out" />
            <feColorMatrix type="matrix" values="0 0 0 0 0 0 0 0 0 0 0 0 0 0 0 0 0 0 0.12 0" />
            <feBlend mode="normal" in2="BackgroundImageFix" result="effect1_dropShadow_0_1" />
            <feBlend mode="normal" in="SourceGraphic" in2="effect1_dropShadow_0_1" result="shape" />
        </filter>
        <filter id="filter1_d_0_1" x="21.1133" y="19.709" width="7.05261" height="19.6842" filterUnits="userSpaceOnUse"
            color-interpolation-filters="sRGB">
            <feFlood flood-opacity="0" result="BackgroundImageFix" />
            <feColorMatrix in="SourceAlpha" type="matrix" values="0 0 0 0 0 0 0 0 0 0 0 0 0 0 0 0 0 0 127 0"
                result="hardAlpha" />
            <feOffset dy="0.5" />
            <feGaussianBlur stdDeviation="0.5" />
            <feComposite in2="hardAlpha" operator="out" />
            <feColorMatrix type="matrix" values="0 0 0 0 0 0 0 0 0 0 0 0 0 0 0 0 0 0 0.12 0" />
            <feBlend mode="normal" in2="BackgroundImageFix" result="effect1_dropShadow_0_1" />
            <feBlend mode="normal" in="SourceGraphic" in2="effect1_dropShadow_0_1" result="shape" />
        </filter>
        <filter id="filter2_d_0_1" x="11.6357" y="9.60596" width="7.05267" height="29.7894" filterUnits="userSpaceOnUse"
            color-interpolation-filters="sRGB">
            <feFlood flood-opacity="0" result="BackgroundImageFix" />
            <feColorMatrix in="SourceAlpha" type="matrix" values="0 0 0 0 0 0 0 0 0 0 0 0 0 0 0 0 0 0 127 0"
                result="hardAlpha" />
            <feOffset dy="0.5" />
            <feGaussianBlur stdDeviation="0.5" />
            <feComposite in2="hardAlpha" operator="out" />
            <feColorMatrix type="matrix" values="0 0 0 0 0 0 0 0 0 0 0 0 0 0 0 0 0 0 0.12 0" />
            <feBlend mode="normal" in2="BackgroundImageFix" result="effect1_dropShadow_0_1" />
            <feBlend mode="normal" in="SourceGraphic" in2="effect1_dropShadow_0_1" result="shape" />
        </filter>
        <filter id="filter3_d_0_1" x="21.1133" y="19.709" width="7.05261" height="19.6842" filterUnits="userSpaceOnUse"
            color-interpolation-filters="sRGB">
            <feFlood flood-opacity="0" result="BackgroundImageFix" />
            <feColorMatrix in="SourceAlpha" type="matrix" values="0 0 0 0 0 0 0 0 0 0 0 0 0 0 0 0 0 0 127 0"
                result="hardAlpha" />
            <feOffset dy="0.5" />
            <feGaussianBlur stdDeviation="0.5" />
            <feComposite in2="hardAlpha" operator="out" />
            <feColorMatrix type="matrix" values="0 0 0 0 0 0 0 0 0 0 0 0 0 0 0 0 0 0 0.12 0" />
            <feBlend mode="normal" in2="BackgroundImageFix" result="effect1_dropShadow_0_1" />
            <feBlend mode="normal" in="SourceGraphic" in2="effect1_dropShadow_0_1" result="shape" />
        </filter>
        <filter id="filter4_d_0_1" x="30.582" y="13.3926" width="7.05261" height="26" filterUnits="userSpaceOnUse"
            color-interpolation-filters="sRGB">
            <feFlood flood-opacity="0" result="BackgroundImageFix" />
            <feColorMatrix in="SourceAlpha" type="matrix" values="0 0 0 0 0 0 0 0 0 0 0 0 0 0 0 0 0 0 127 0"
                result="hardAlpha" />
            <feOffset dy="0.5" />
            <feGaussianBlur stdDeviation="0.5" />
            <feComposite in2="hardAlpha" operator="out" />
            <feColorMatrix type="matrix" values="0 0 0 0 0 0 0 0 0 0 0 0 0 0 0 0 0 0 0.12 0" />
            <feBlend mode="normal" in2="BackgroundImageFix" result="effect1_dropShadow_0_1" />
            <feBlend mode="normal" in="SourceGraphic" in2="effect1_dropShadow_0_1" result="shape" />
        </filter>
    </defs>
</svg>