<svg width="512" height="130" viewBox="0 0 512 130" fill="none" xmlns="http://www.w3.org/2000/svg">
<g clip-path="url(#clip0_906_2)">
<path fill-rule="evenodd" clip-rule="evenodd" d="M18.741 28.2V36.1034C21.9417 32.8949 25.4095 30.4581 29.1474 28.8538C32.8791 27.2528 36.8808 26.4395 41.1276 26.4395C50.3562 26.4395 58.2026 29.9829 64.6733 37.0475C71.144 44.1376 74.3668 53.2115 74.3668 64.298C74.3668 74.9762 71.0309 83.9161 64.3404 91.0924C57.6718 98.2941 49.7562 101.885 40.5968 101.885C36.5259 101.885 32.7252 101.139 29.2103 99.6719C25.6985 98.2048 22.2087 95.7904 18.741 92.4255V126.403H1V28.2H18.741ZM37.3708 42.9639C31.7891 42.9639 27.1434 44.9062 23.4746 48.7655C19.7869 52.6502 17.94 57.7054 17.94 63.9567C17.94 70.3483 19.7869 75.5152 23.4746 79.4446C27.1434 83.3963 31.7891 85.3578 37.3708 85.3578C42.7955 85.3578 47.3533 83.3516 51.0692 79.3553C54.7788 75.3366 56.6258 70.2335 56.6258 64.0269C56.6258 57.8617 54.8008 52.8065 51.1572 48.8771C47.5323 44.9286 42.9306 42.9639 37.3708 42.9639Z" fill="white"/>
<path fill-rule="evenodd" clip-rule="evenodd" d="M84.4205 0.432861H102.161V35.558C105.629 32.5121 109.1 30.2317 112.612 28.7199C116.102 27.2081 119.661 26.4395 123.238 26.4395C130.243 26.4395 136.158 28.8985 140.96 33.8453C145.072 38.1096 147.117 44.3864 147.117 52.6502V100.125H129.643V68.6324C129.643 60.324 129.266 54.6787 128.487 51.7444C127.708 48.7878 126.373 46.5998 124.485 45.1295C122.616 43.6879 120.283 42.9639 117.528 42.9639C113.947 42.9639 110.856 44.1823 108.277 46.5998C105.72 49.0142 103.942 52.3089 102.94 56.4871C102.428 58.6527 102.161 63.574 102.161 71.2733V100.125H84.4205V0.432861Z" fill="white"/>
<path fill-rule="evenodd" clip-rule="evenodd" d="M211.999 28.2H229.74V100.125H211.999V92.4702C208.531 95.8127 205.038 98.2048 201.548 99.6719C198.058 101.139 194.258 101.885 190.187 101.885C181.005 101.885 173.09 98.2941 166.399 91.0924C159.706 83.9161 156.373 74.9762 156.373 64.298C156.373 53.2115 159.618 44.1376 166.085 37.0475C172.556 29.9829 180.405 26.4395 189.653 26.4395C193.922 26.4395 197.901 27.2528 201.636 28.8538C205.374 30.4581 208.82 32.8949 211.999 36.1034V28.2ZM193.3 42.9639C187.787 42.9639 183.204 44.9286 179.582 48.8771C175.936 52.8065 174.111 57.8617 174.111 64.0269C174.111 70.2335 175.958 75.3366 179.67 79.3553C183.386 83.3516 187.941 85.3578 193.366 85.3578C198.947 85.3578 203.593 83.3963 207.262 79.4446C210.953 75.5152 212.8 70.3483 212.8 63.9567C212.8 57.7054 210.953 52.6502 207.262 48.7655C203.593 44.9062 198.925 42.9639 193.3 42.9639Z" fill="white"/>
<path fill-rule="evenodd" clip-rule="evenodd" d="M286.216 38.3819L275.232 49.6023C270.787 45.0861 266.738 42.828 263.095 42.828C261.116 42.828 259.558 43.2554 258.424 44.1165C257.29 44.9713 256.734 46.0333 256.734 47.2964C256.734 48.2691 257.092 49.1494 257.802 49.9627C258.515 50.776 260.293 51.8796 263.117 53.3021L269.609 56.5967C276.457 60.0094 281.169 63.505 283.725 67.0517C286.282 70.6175 287.548 74.7733 287.548 79.5574C287.548 85.9235 285.236 91.2531 280.613 95.495C275.989 99.7625 269.785 101.887 262.005 101.887C251.689 101.887 243.419 97.7978 237.259 89.6041L248.218 77.5034C250.31 79.9657 252.754 81.9718 255.581 83.4868C258.38 84.9986 260.871 85.7641 263.051 85.7641C265.385 85.7641 267.297 85.2027 268.72 84.0482C270.165 82.9 270.875 81.5891 270.875 80.0996C270.875 77.3217 268.296 74.6138 263.117 71.9953L257.136 68.9462C245.662 63.1 239.926 55.7866 239.926 47.0061C239.926 41.3385 242.084 36.4842 246.397 32.4655C250.709 28.4468 256.225 26.4375 262.938 26.4375C267.539 26.4375 271.852 27.4773 275.923 29.5312C279.969 31.5852 283.393 34.5418 286.216 38.3819Z" fill="white"/>
<path fill-rule="evenodd" clip-rule="evenodd" d="M367.681 69.2406H310.654C311.474 74.366 313.676 78.4517 317.235 81.5008C320.791 84.5244 325.349 86.0361 330.864 86.0361C337.489 86.0361 343.159 83.6664 347.917 78.9269L362.812 86.0808C359.1 91.455 354.63 95.4258 349.45 98.0252C344.249 100.599 338.089 101.884 330.952 101.884C319.88 101.884 310.855 98.341 303.895 91.2285C296.937 84.1384 293.444 75.2463 293.444 64.5681C293.444 53.6188 296.937 44.5225 303.895 37.2985C310.855 30.0521 319.569 26.4385 330.085 26.4385C341.224 26.4385 350.295 30.0521 357.275 37.2538C364.257 44.4747 367.747 53.9792 367.747 65.8343L367.681 69.2406ZM350.006 55.1529C348.828 51.2267 346.516 48.0213 343.071 45.5591C339.603 43.1001 335.598 41.8785 331.018 41.8785C326.062 41.8785 321.727 43.2563 317.967 46.0343C315.633 47.7502 313.453 50.7961 311.455 55.1529H350.006Z" fill="white"/>
<path fill-rule="evenodd" clip-rule="evenodd" d="M432.149 0H461.606L393.017 119.738C391.198 122.917 387.146 125.517 384.018 125.517H354.557L423.147 5.77924C424.968 2.59938 429.017 0 432.149 0Z" fill="#3FA1E3"/>
<path fill-rule="evenodd" clip-rule="evenodd" d="M482.698 0H512.159L443.569 119.738C441.748 122.917 437.699 125.517 434.567 125.517H405.107L473.696 5.77924C475.518 2.59938 479.566 0 482.698 0Z" fill="#3FA1E3"/>
</g>
<defs>
<clipPath id="clip0_906_2">
<rect width="512" height="129.969" fill="white"/>
</clipPath>
</defs>
</svg>
