<svg width="19" height="18" viewBox="0 0 19 18" fill="none" xmlns="http://www.w3.org/2000/svg">
<path fill-rule="evenodd" clip-rule="evenodd" d="M9.49691 0.449951C7.37364 0.451053 5.31999 1.20307 3.70318 2.57154C2.08638 3.94001 1.01184 5.83569 0.671699 7.91962C0.331562 10.0035 0.748007 12.1398 1.84658 13.9465C2.94515 15.7531 4.6542 17.1123 6.66814 17.781C7.11245 17.8635 7.2798 17.5881 7.2798 17.354C7.2798 17.1198 7.27092 16.4409 7.26795 15.6988C4.77983 16.2363 4.25407 14.6488 4.25407 14.6488C3.84827 13.618 3.26178 13.347 3.26178 13.347C2.45018 12.7963 3.32251 12.8066 3.32251 12.8066C4.22149 12.8699 4.69394 13.724 4.69394 13.724C5.49073 15.0832 6.78662 14.69 7.29609 14.4603C7.37607 13.8845 7.60859 13.4928 7.86481 13.2704C5.87727 13.0466 3.78902 12.2838 3.78902 8.87619C3.77671 7.99244 4.10652 7.13781 4.71023 6.4891C4.6184 6.26526 4.31183 5.36108 4.7976 4.13293C4.7976 4.13293 5.54849 3.89437 7.2576 5.04447C8.72356 4.64586 10.2703 4.64586 11.7362 5.04447C13.4438 3.89437 14.1932 4.13293 14.1932 4.13293C14.6805 5.35814 14.3739 6.26232 14.2821 6.4891C14.8877 7.13791 15.2182 7.99404 15.2048 8.87913C15.2048 12.2941 13.1121 13.0466 11.1216 13.266C11.4415 13.5429 11.7273 14.0833 11.7273 14.9139C11.7273 16.1037 11.717 17.0609 11.717 17.354C11.717 17.5911 11.8784 17.8679 12.3316 17.781C14.3458 17.1122 16.055 15.7528 17.1535 13.9458C18.2521 12.1389 18.6683 10.0023 18.3278 7.91816C17.9873 5.83405 16.9122 3.93835 15.2948 2.57011C13.6775 1.20188 11.6234 0.450355 9.49986 0.449951H9.49691Z" fill="#191717"/>
</svg>
